<svg id="Layer_1" data-name="Layer 1" xmlns="http://www.w3.org/2000/svg" viewBox="0 0 86.28 86.28"><defs><style>.cls-1{fill:#3d3d33;}.cls-2{fill:#e41e2a;}.cls-3{fill:none;stroke:#fdfefe;stroke-miterlimit:10;stroke-width:0.3px;}.cls-4{fill:#fff;}.cls-5{fill:#5cba47;}</style></defs><circle class="cls-1" cx="43.14" cy="43.14" r="43.14"/><g id="Aiguille"><path class="cls-2" d="M46.74,45.08c-1.16-1.44-2.22-2.93-3.34-4.38s-2.13-3-3.16-4.48-2.37-2.84-3-4.58A13.94,13.94,0,0,1,36.19,26l.35-.19a13.71,13.71,0,0,1,4.22,3.9c1.14,1.44,1.55,3.29,2.28,5s1.44,3.36,2.11,5.06,1.34,3.41,1.94,5.15Z"/></g><line id="Axe_aiguille" data-name="Axe aiguille" class="cls-3" x1="36.95" y1="26.97" x2="46.91" y2="44.98"/><path class="cls-4" d="M42.66,23.22l-.14,0c.41,0,.82-.07,1.24-.07a20.73,20.73,0,0,1,7.18,1.25,22.2,22.2,0,0,1,7.27,4.83L66.3,19.4a33.07,33.07,0,0,0-10.81-7.63,30.52,30.52,0,0,0-11.82-2.3c-.59,0-1.18,0-1.76,0Z"/><path class="cls-4" d="M45.33,38.72V50.5h12v7.08a23.31,23.31,0,0,1-6.77,4.1,19.54,19.54,0,0,1-6.76,1.24,16.81,16.81,0,0,1-7.22-1.57,18.17,18.17,0,0,1-5.84-4.27,20.26,20.26,0,0,1-3.91-6.31,20.7,20.7,0,0,1-1.43-7.72,21.17,21.17,0,0,1,1.43-7.78,20.19,20.19,0,0,1,2.68-4.83l0,.06L18.72,22a36.09,36.09,0,0,0-4.63,8,33.37,33.37,0,0,0-2.53,13,33.59,33.59,0,0,0,2.53,13A34.89,34.89,0,0,0,21,66.78,32.47,32.47,0,0,0,31.16,74.1a29.78,29.78,0,0,0,26.59-.88A39.38,39.38,0,0,0,70,62.64V38.72Z"/><path id="Indicateur" class="cls-5" d="M40.84,10.22q.36,6.23.73,12.46a19.37,19.37,0,0,0-12,6.09L20,21.4A31.51,31.51,0,0,1,40.84,10.22Z"/></svg>