<svg id="Logo" xmlns="http://www.w3.org/2000/svg" viewBox="0 0 283.46 110.2"><defs><style>.cls-1{fill:#e41e2a;}.cls-2{fill:none;stroke:#fdfefe;stroke-miterlimit:10;stroke-width:0.3px;}.cls-3{fill:#fff;}.cls-4{fill:#70c05a;}.cls-5{fill:#4d8c40;}.cls-6{fill:#5cba47;}</style></defs><g id="Aiguille"><path class="cls-1" d="M58.14,68.9C57,67.47,55.92,66,54.8,64.52s-2.13-3-3.16-4.47-2.37-2.84-3-4.58a13.77,13.77,0,0,1-1.06-5.64l.35-.19a13.56,13.56,0,0,1,4.21,3.9c1.15,1.44,1.56,3.29,2.29,5s1.44,3.35,2.11,5.06,1.34,3.41,1.94,5.15Z"/></g><line id="Axe_aiguille" data-name="Axe aiguille" class="cls-2" x1="48.35" y1="50.79" x2="58.31" y2="68.81"/><path class="cls-3" d="M142.65,53.63a19.77,19.77,0,0,1-3.31,11.08,18.32,18.32,0,0,1-3.77,4.14,20.22,20.22,0,0,1-4.78,2.9l21.62,27.69H136.12L116,73.13h-6.25V99.44h-14V34.21h28.15a18,18,0,0,1,7.32,1.52,18.63,18.63,0,0,1,6,4.14,19.77,19.77,0,0,1,5.47,13.76Zm-20.51,6.8a6.21,6.21,0,0,0,4.6-2,6.65,6.65,0,0,0,1.93-4.83,6.54,6.54,0,0,0-1.93-4.74,6.22,6.22,0,0,0-4.6-2H109.72V60.43Z"/><path class="cls-3" d="M189.57,34.21V46H184.7V87.76h4.87V99.44H165.84V87.76h4.87V46h-4.87V34.21Z"/><path class="cls-3" d="M231.48,34.21A28.92,28.92,0,0,1,244,36.79a26,26,0,0,1,9.07,7,30.69,30.69,0,0,1,5.54,10.4,42.21,42.21,0,0,1,1.88,12.69,40.07,40.07,0,0,1-2,12.75A33.83,33.83,0,0,1,253,90a26,26,0,0,1-8.3,6.94,21.89,21.89,0,0,1-10.41,2.53H205.12V34.21Zm0,52.54a13.46,13.46,0,0,0,6.77-1.61,13.71,13.71,0,0,0,4.64-4.36,19.79,19.79,0,0,0,2.72-6.33,31.83,31.83,0,0,0,.87-7.53,34,34,0,0,0-.83-7.57A18.79,18.79,0,0,0,243,53a13.94,13.94,0,0,0-4.69-4.41,13.37,13.37,0,0,0-6.81-1.65H219.1V86.75Z"/><g id="Feuille"><path class="cls-4" d="M193.07,17.18A29.06,29.06,0,0,1,198.18,13s-31-12.22-30.46,9.75C177.93,35.58,186.66,23.61,193.07,17.18Z"/><path class="cls-5" d="M196.24,13.24s-2.05.3-5.08,1a89.23,89.23,0,0,0-10.94,3.09,52.13,52.13,0,0,0-5.56,2.34c-.43.21-.85.42-1.26.65s-.8.44-1.17.66-.74.45-1.08.68-.67.45-1,.67-.6.44-.86.66-.53.42-.75.63l-.62.58-.5.52a8.18,8.18,0,0,0-.64.77l-.23.27-1.06-.82.26-.29a10.93,10.93,0,0,1,.75-.81l.56-.55.69-.59c.25-.22.53-.42.82-.64s.6-.44.94-.66.67-.44,1.05-.66.74-.44,1.14-.65.81-.43,1.24-.64.86-.41,1.31-.61A52.49,52.49,0,0,1,180,16.65,88.55,88.55,0,0,1,191.12,14C194.18,13.46,196.24,13.24,196.24,13.24Z"/></g><path class="cls-3" d="M54.06,47.05l-.14,0c.41,0,.82-.07,1.24-.07a21,21,0,0,1,7.18,1.24,22.52,22.52,0,0,1,7.27,4.83l8.09-9.84a33.21,33.21,0,0,0-10.81-7.64,30.7,30.7,0,0,0-11.82-2.3c-.59,0-1.18,0-1.76.05Z"/><path class="cls-3" d="M56.73,62.55V74.33h12v7.08a23.17,23.17,0,0,1-6.77,4.09,19.32,19.32,0,0,1-6.76,1.25,16.77,16.77,0,0,1-7.22-1.57A18.2,18.2,0,0,1,42.1,80.9a20.21,20.21,0,0,1-3.91-6.3,20.75,20.75,0,0,1-1.43-7.73,21.07,21.07,0,0,1,1.43-7.77,20,20,0,0,1,2.68-4.83l0,.06-10.7-8.47a36.38,36.38,0,0,0-4.63,8,33.32,33.32,0,0,0-2.53,13,33.68,33.68,0,0,0,2.53,13,35.17,35.17,0,0,0,6.85,10.72,32.44,32.44,0,0,0,10.22,7.31,29.74,29.74,0,0,0,26.59-.87A39.38,39.38,0,0,0,81.38,86.47V62.55Z"/><path id="Indicateur" class="cls-6" d="M52.24,34.05q.36,6.23.73,12.45a19.51,19.51,0,0,0-12,6.09l-9.53-7.36A31.51,31.51,0,0,1,52.24,34.05Z"/></svg>