<svg id="Logo" xmlns="http://www.w3.org/2000/svg" viewBox="0 0 283.46 283.46"><defs><style>.cls-1{fill:#fff;}.cls-2{fill:#e41e2a;}.cls-3{fill:none;stroke:#fdfefe;stroke-width:0.3px;}.cls-3,.cls-7{stroke-miterlimit:10;}.cls-4{fill:#3d3d33;}.cls-5{fill:#70c05a;}.cls-6{fill:#4d8c40;}.cls-7{fill:#5cba47;stroke:#fff;}</style></defs><g id="N_B" data-name="N&amp;B"><rect id="Fond" class="cls-1" width="283.46" height="283.46"/><g id="Aiguille"><path class="cls-2" d="M58.05,144.77c-1.16-1.43-2.23-2.92-3.34-4.38s-2.14-3-3.16-4.47-2.37-2.84-3-4.58a13.77,13.77,0,0,1-1.06-5.64l.35-.19a13.56,13.56,0,0,1,4.21,3.9c1.14,1.44,1.56,3.29,2.29,5s1.44,3.35,2.11,5.06,1.34,3.41,1.94,5.15Z"/></g><line id="Axe_aiguille" data-name="Axe aiguille" class="cls-3" x1="48.26" y1="126.66" x2="58.22" y2="144.68"/><path class="cls-4" d="M56.63,138.42H81.29v23.92a39.3,39.3,0,0,1-12.24,10.58,29.72,29.72,0,0,1-26.58.87,32.44,32.44,0,0,1-10.22-7.31,35.17,35.17,0,0,1-6.85-10.72,33.68,33.68,0,0,1-2.53-13,33.32,33.32,0,0,1,2.53-13,35.29,35.29,0,0,1,6.85-10.67,32,32,0,0,1,10.22-7.27A29.9,29.9,0,0,1,55,109.16a30.7,30.7,0,0,1,11.82,2.3,33.21,33.21,0,0,1,10.81,7.64l-8.1,9.84a22.42,22.42,0,0,0-7.27-4.83,21,21,0,0,0-7.17-1.24,16.77,16.77,0,0,0-7.22,1.57A18.67,18.67,0,0,0,42,128.67a19.8,19.8,0,0,0-3.9,6.3,20.87,20.87,0,0,0-1.43,7.77,20.68,20.68,0,0,0,5.33,14,18.35,18.35,0,0,0,5.85,4.28,16.77,16.77,0,0,0,7.22,1.57,19.32,19.32,0,0,0,6.76-1.25,23,23,0,0,0,6.76-4.09V150.2h-12Z"/><path class="cls-4" d="M142.56,129.5a19.92,19.92,0,0,1-.87,5.93,20.17,20.17,0,0,1-2.44,5.15,18.56,18.56,0,0,1-3.77,4.14,20.28,20.28,0,0,1-4.79,2.9l21.62,27.69H136L115.88,149h-6.26v26.31h-14V110.08h28.15a18,18,0,0,1,7.32,1.52,18.63,18.63,0,0,1,6,4.14,19.77,19.77,0,0,1,5.47,13.76ZM122,136.3a6.18,6.18,0,0,0,4.6-2,6.65,6.65,0,0,0,1.94-4.83,6.55,6.55,0,0,0-1.94-4.74,6.19,6.19,0,0,0-4.6-2H109.62V136.3Z"/><path class="cls-4" d="M189.48,110.08v11.78H184.6v41.77h4.88v11.68H165.74V163.63h4.88V121.86h-4.88V110.08Z"/><path class="cls-4" d="M231.38,110.08a29,29,0,0,1,12.54,2.58,26,26,0,0,1,9.07,7,30.67,30.67,0,0,1,5.53,10.4,41.9,41.9,0,0,1,1.89,12.69,40.07,40.07,0,0,1-2,12.75A33.83,33.83,0,0,1,253,165.84a26,26,0,0,1-8.3,6.94,21.89,21.89,0,0,1-10.41,2.53H205V110.08Zm.05,52.54a13.39,13.39,0,0,0,6.76-1.61,13.74,13.74,0,0,0,4.65-4.36,19.55,19.55,0,0,0,2.71-6.33,31.32,31.32,0,0,0,.88-7.53,34,34,0,0,0-.83-7.57,18.79,18.79,0,0,0-2.67-6.38,14,14,0,0,0-4.69-4.41,13.37,13.37,0,0,0-6.81-1.65H219v39.84Z"/><g id="Feuille"><path class="cls-5" d="M193,93.05a29.06,29.06,0,0,1,5.11-4.23s-31-12.22-30.46,9.75C177.84,111.45,186.56,99.48,193,93.05Z"/><path class="cls-6" d="M196.15,89.11s-2.05.3-5.08,1a89.23,89.23,0,0,0-10.94,3.09,52.13,52.13,0,0,0-5.56,2.34c-.43.21-.86.42-1.26.65s-.8.44-1.17.66-.74.45-1.08.68-.68.45-1,.67-.6.44-.86.66-.53.42-.75.63l-.62.58-.5.52c-.31.31-.49.59-.65.77l-.22.27-1.06-.82.26-.29a10.39,10.39,0,0,1,.74-.81l.57-.55.69-.59c.25-.22.53-.42.82-.64s.6-.44.94-.66.67-.44,1-.66.75-.44,1.15-.65.81-.43,1.24-.64.86-.41,1.31-.61a52.49,52.49,0,0,1,5.74-2.15A88.15,88.15,0,0,1,191,89.87C194.09,89.33,196.15,89.11,196.15,89.11Z"/></g><path id="Indicateur" class="cls-7" d="M53.22,109.16,54,122.92a16.92,16.92,0,0,0-13.37,6.94l-10.52-8.1a32.28,32.28,0,0,1,7.48-7.09A32.85,32.85,0,0,1,53.22,109.16Z"/></g></svg>